Coordinates
version=1
nRows=6
nColumns=63
inDegrees=yes

Units are S.I. units (second, meters, Newtons, ...)
If the header above contains a line with 'inDegrees', this indicates whether rotational values are in degrees (yes) or radians (no).

endheader
time	pelvis_tilt	pelvis_list	pelvis_rotation	pelvis_tx	pelvis_ty	pelvis_tz	hip_flexion_r	hip_adduction_r	hip_rotation_r	knee_angle_r	knee_angle_r_beta	ankle_angle_r	subtalar_angle_r	mtp_angle_r	hip_flexion_l	hip_adduction_l	hip_rotation_l	knee_angle_l	knee_angle_l_beta	ankle_angle_l	subtalar_angle_l	mtp_angle_l	L5_S1_Flex_Ext	L5_S1_Lat_Bending	L5_S1_axial_rotation	L4_L5_Flex_Ext	L4_L5_Lat_Bending	L4_L5_axial_rotation	L3_L4_Flex_Ext	L3_L4_Lat_Bending	L3_L4_axial_rotation	L2_L3_Flex_Ext	L2_L3_Lat_Bending	L2_L3_axial_rotation	L1_L2_Flex_Ext	L1_L2_Lat_Bending	L1_L2_axial_rotation	L1_T12_Flex_Ext	L1_T12_Lat_Bending	L1_T12_axial_rotation	Abs_r3	Abs_r2	Abs_r1	Abs_t1	Abs_t2	neck_flexion	neck_bending	neck_rotation	arm_flex_r	arm_add_r	arm_rot_r	elbow_flex_r	pro_sup_r	wrist_flex_r	wrist_dev_r	arm_flex_l	arm_add_l	arm_rot_l	elbow_flex_l	pro_sup_l	wrist_flex_l	wrist_dev_l
      4.38333333	      0.95084904	     -0.92082496	     95.59548235	      0.16975882	      0.97601496	      0.43682200	     -5.86883487	      2.44725959	     -2.80605386	      0.42539123	      0.00742448	     20.83977916	    -10.96870733	      0.00000000	     -2.14234435	     -0.73190710	      8.75193531	      1.57549582	      0.02749759	     28.05886922	      1.95055257	      0.00000000	      0.23131880	      0.31364289	     -0.79432247	      0.42958215	      0.41714504	     -0.84396762	      0.38003366	      0.76259132	     -0.84396762	      0.26437426	      0.76259132	     -0.69503216	      0.21480264	      0.63958058	     -0.64538700	      0.13217556	      0.48583283	     -0.59574185	      1.65228707	      3.54799109	     -4.41778326	      0.00000000	      0.00000000	     27.72466805	     -2.45787076	     -8.10646862	      2.04877161	    -16.33551042	     95.87299794	     12.38333123	      4.82913238	     -2.02444744	     -1.32021277	     -1.50085515	    -10.33187086	    148.10079742	     10.67828191	      8.08518377	     -5.60482809	     -5.32998120
      4.40000000	      1.01186936	     -0.81420271	     95.61936062	      0.16901304	      0.97601730	      0.43682124	     -5.98411800	      2.46708219	     -3.44020499	      0.43164602	      0.00753364	     21.11048707	    -10.00485223	      0.00000000	     -2.26171833	     -0.76935899	      8.73988873	      1.64624225	      0.02873235	     28.05368287	      1.78305290	      0.00000000	      0.20887786	      0.32998562	     -0.71575379	      0.38790707	      0.43888087	     -0.76048840	      0.34316543	      0.80232704	     -0.76048840	      0.23872650	      0.80232704	     -0.62628456	      0.19396398	      0.67290668	     -0.58154995	      0.11935281	      0.51114772	     -0.53681534	      1.49199364	      3.73286333	     -3.98080784	      0.00000000	      0.00000000	     27.72455596	     -2.68930247	     -7.18731847	      1.80509031	    -16.52883197	     94.39282554	     12.64430423	      5.15274742	     -2.25188379	     -1.03891039	     -1.02650468	     -7.97186956	    172.14777142	      7.60141670	      7.94375900	     -6.43197855	     -4.04237223
      4.41666667	      1.10990919	     -0.73874152	     95.65902380	      0.16822427	      0.97598956	      0.43728937	     -6.03265894	      2.53073432	     -3.52619883	      0.43304921	      0.00755813	     21.08110385	     -9.95928569	      0.00000000	     -2.29189334	     -0.83844306	      8.75190702	      1.74632770	      0.03047917	     28.01126408	      1.62229149	      0.00000000	      0.18946526	      0.35059654	     -0.66262000	      0.35185594	      0.46629339	     -0.70403375	      0.31127248	      0.85244042	     -0.70403375	      0.21653985	      0.85244042	     -0.57979250	      0.17593744	      0.71493646	     -0.53837875	      0.10826045	      0.54307403	     -0.49696500	      1.35333142	      3.96601814	     -3.68529368	      0.00000000	      0.00000000	     27.70096641	     -2.51188131	     -5.77386957	      1.78147236	    -16.67014292	     93.98280615	     12.65775399	      4.86054778	     -2.43491223	     -1.03505298	     -0.71827208	     -6.76318744	    181.07209936	      6.19680174	     15.70059582	     -8.49198565	     -2.02703862
      4.43333333	      1.20778671	     -0.63696059	     95.64391193	      0.16757773	      0.97611433	      0.43828097	     -6.06971264	      2.58654675	     -3.65266301	      0.43822550	      0.00764848	     21.00297720	     -9.73839407	      0.00000000	     -2.30236217	     -0.89875333	      9.18711991	      1.86784995	      0.03260013	     27.82223412	      0.89572324	      0.00000000	      0.15989875	      0.37226510	     -0.58394437	      0.29694797	      0.49511259	     -0.62044090	      0.26269765	      0.90512537	     -0.62044090	      0.18274828	      0.90512537	     -0.51095133	      0.14848198	      0.75912300	     -0.47445480	      0.09136614	      0.57663864	     -0.43795828	      1.14214077	      4.21113729	     -3.24772343	      0.00000000	      0.00000000	     27.65473224	     -2.52491435	     -4.57951297	      1.76279624	    -16.74228611	     92.57248685	     12.48744335	      5.21383233	     -2.66925333	     -1.14535803	     -0.25612348	     -5.92515863	    192.15020176	      4.98597813	     13.81176446	     -8.93392249	     -0.56224412
      4.45000000	      1.24601568	     -0.66622761	     95.63681655	      0.16707154	      0.97624943	      0.43958534	     -5.93424668	      2.58005386	     -3.72722843	      0.45802386	      0.00799402	     20.80301377	     -9.72450934	      0.00000000	     -2.15170791	     -0.90698758	      9.15170524	      1.96223159	      0.03424740	     27.48840649	      0.91194237	      0.00000000	      0.14241652	      0.37748547	     -0.55862345	      0.26448173	      0.50205567	     -0.59353742	      0.23397611	      0.91781817	     -0.59353742	      0.16276785	      0.91781817	     -0.48879552	      0.13224799	      0.76976837	     -0.45388156	      0.08137680	      0.58472499	     -0.41896759	      1.01726700	      4.27019112	     -3.10689606	      0.00000000	      0.00000000	     27.59538544	     -2.52361771	     -4.07637999	      2.14554856	    -16.68103974	     92.52415760	     12.21693127	      5.19736063	     -2.77860022	     -1.21883732	      0.36200617	     -5.89154428	    192.19230291	      4.67275433	     13.89340390	     -9.00230761	     -0.37703031
      4.46666667	      1.30001673	     -0.68265186	     95.33467826	      0.16706799	      0.97654486	      0.44085889	     -5.78851038	      2.56630306	     -3.61792761	      0.49369202	      0.00861655	     20.68566228	     -9.52903634	      0.00000000	     -1.95381507	     -0.90008301	      8.89937300	      2.23766403	      0.03905460	     27.32572619	      0.60005741	      0.00000000	      0.11746703	      0.40080291	     -0.56453491	      0.21814801	      0.53306786	     -0.59981835	      0.19298658	      0.97451218	     -0.59981835	      0.13425306	      0.97451218	     -0.49396805	      0.10907988	      0.81731728	     -0.45868462	      0.06712066	      0.62084370	     -0.42340118	      0.83905522	      4.53396263	     -3.13977383	      0.00000000	      0.00000000	     27.61827454	     -0.74046158	     -0.12177632	      2.96344841	    -16.53949794	     93.24005648	     11.68280335	      5.68906616	     -3.11219379	     -1.15008003	      0.92490617	     -5.91716903	    190.78605395	      4.55362836	     12.98211098	     -8.46200700	      0.21076699
